<svg width="28" height="38" viewBox="0 0 28 38" fill="none" xmlns="http://www.w3.org/2000/svg">
<mask id="path-1-inside-1_8_331" fill="white">
<path fill-rule="evenodd" clip-rule="evenodd" d="M18.7923 0H0V38H27.7692V8.9769L18.7923 0Z"/>
</mask>
<path d="M0 0V-1H-1V0H0ZM18.7923 0L19.4994 -0.707107L19.2065 -1H18.7923V0ZM0 38H-1V39H0V38ZM27.7692 38V39H28.7692V38H27.7692ZM27.7692 8.9769H28.7692V8.56269L28.4763 8.26979L27.7692 8.9769ZM0 1H18.7923V-1H0V1ZM1 38V0H-1V38H1ZM27.7692 37H0V39H27.7692V37ZM26.7692 8.9769V38H28.7692V8.9769H26.7692ZM28.4763 8.26979L19.4994 -0.707107L18.0852 0.707107L27.0621 9.68401L28.4763 8.26979Z" fill="#FCFCFC" mask="url(#path-1-inside-1_8_331)"/>
</svg>
